<svg width="149" height="27" viewBox="0 0 149 27" fill="none" xmlns="http://www.w3.org/2000/svg">
<g clip-path="url(#clip0_4424_1268)">
<path d="M38.1438 3.97034H35.5742V5.58122H38.1438V3.97034Z" fill="#272727"/>
<path d="M0.00195312 0.000732422H4.97511V23.5531C4.97511 25.4553 3.43077 26.9997 1.52852 26.9997H0.00195312V0.000732422Z" fill="#FF6736"/>
<path d="M22.6055 0.000854492H25.5902C26.6875 0.000854492 27.5786 0.891929 27.5786 1.98927V19.5599H22.6055V0.000854492Z" fill="#FF6736"/>
<path d="M8.76367 0.000854492H18.4573V6.13153C18.4573 7.22887 17.5662 8.11994 16.4689 8.11994H8.76367V0.000854492Z" fill="#FF6736"/>
<path d="M10.7521 11.4421H18.4573V19.5602H8.76367V13.4306C8.76367 12.3332 9.65475 11.4421 10.7521 11.4421Z" fill="#FF6736"/>
<path d="M70.5372 13.6727C70.9527 13.6727 71.3286 13.5886 71.6656 13.42C72.0023 13.2519 72.2709 13.0207 72.4713 12.7272C72.672 12.4335 72.7831 12.0968 72.8046 11.7169H75.3187C75.2972 12.4836 75.0716 13.1748 74.6419 13.7906C74.2121 14.4068 73.6424 14.8973 72.9334 15.2629C72.2242 15.6279 71.4328 15.8106 70.559 15.8106C69.3768 15.8106 68.3937 15.5473 67.6095 15.0208C66.825 14.4943 66.2394 13.789 65.8525 12.9041C65.4657 12.0196 65.2725 11.04 65.2725 9.96573V9.60039C65.2725 8.52585 65.4657 7.54649 65.8525 6.66178C66.2394 5.77707 66.825 5.07158 67.6095 4.54505C68.3937 4.01878 69.3768 3.75525 70.559 3.75525C71.4973 3.75525 72.3191 3.93977 73.0249 4.30856C73.7301 4.67787 74.2837 5.19141 74.6851 5.85051C75.0862 6.50933 75.2975 7.27951 75.319 8.16051H72.8048C72.7834 7.74533 72.6813 7.36541 72.4986 7.02155C72.3162 6.67769 72.0583 6.40382 71.725 6.19941C71.392 5.99526 70.9925 5.89346 70.5269 5.89346C69.8392 5.89346 69.3073 6.07241 68.9311 6.43033C68.5552 6.78877 68.2956 7.25088 68.1522 7.81665C68.0088 8.38268 67.9372 8.97709 67.9372 9.60039V9.96573C67.9372 10.5959 68.0069 11.194 68.1466 11.7598C68.2861 12.3258 68.5459 12.7861 68.9256 13.1406C69.3052 13.4953 69.8424 13.6727 70.537 13.6727H70.5372Z" fill="#272727"/>
<path d="M87.0079 9.46104C87.0079 8.33639 86.8253 7.34589 86.4599 6.49008C86.0946 5.63427 85.5429 4.96431 84.8053 4.48072C84.0675 3.99741 83.1401 3.75562 82.0226 3.75562C81.0122 3.75562 80.1079 4.00297 79.3096 4.4969C78.5105 4.99135 77.8822 5.68809 77.4241 6.58685C76.9657 7.48614 76.7363 8.5408 76.7363 9.75134V10.192C76.7363 11.2448 76.9619 12.1958 77.4132 13.0447C77.8644 13.8933 78.5092 14.5667 79.3473 15.0646C80.1853 15.5625 81.1808 15.8112 82.3344 15.8112C83.4802 15.8112 84.4204 15.5875 85.155 15.1397C85.8891 14.6922 86.439 14.1927 86.8043 13.6409L85.4074 12.244C85.0564 12.7024 84.6393 13.0537 84.1555 13.2971C83.6722 13.5407 83.1186 13.6624 82.4956 13.6624C81.8508 13.6624 81.2956 13.5105 80.8301 13.2056C80.3643 12.9015 80.0098 12.4877 79.7661 11.9646C79.4734 11.3328 79.9348 10.6109 80.631 10.6109H87.0082V9.46157L87.0079 9.46104ZM84.3753 8.68741H79.4724C79.5225 8.33665 79.5981 8.01161 79.7015 7.71494C79.9019 7.1383 80.1954 6.69078 80.5822 6.37184C80.969 6.05343 81.4454 5.89382 82.0115 5.89382C82.5775 5.89382 83.0303 6.01551 83.3707 6.25889C83.7106 6.50254 83.9598 6.82148 84.1173 7.21519C84.2748 7.60916 84.3607 8.03176 84.3753 8.483V8.68741Z" fill="#272727"/>
<path d="M100.695 9.67605C100.695 8.54398 100.91 7.53413 101.339 6.64571C101.769 5.75755 102.387 5.05392 103.193 4.53454C103.999 4.01517 104.967 3.75562 106.099 3.75562C107.245 3.75562 108.223 4.01517 109.032 4.53454C109.842 5.05392 110.46 5.75755 110.886 6.64571C111.312 7.53413 111.525 8.54398 111.525 9.67605V9.90167C111.525 11.0263 111.312 12.0343 110.886 12.9262C110.46 13.818 109.843 14.5219 109.037 15.0376C108.232 15.5533 107.259 15.8112 106.12 15.8112C104.981 15.8112 104.007 15.5533 103.198 15.0376C102.388 14.5219 101.769 13.818 101.339 12.9262C100.909 12.0346 100.694 11.0263 100.694 9.90167V9.67605H100.695ZM103.359 9.90167C103.359 10.5891 103.456 11.2177 103.649 11.7872C103.843 12.3567 104.142 12.8135 104.547 13.1574C104.951 13.5012 105.476 13.673 106.121 13.673C106.758 13.673 107.279 13.5012 107.684 13.1574C108.089 12.8135 108.386 12.3567 108.576 11.7872C108.765 11.218 108.861 10.5891 108.861 9.90167V9.67605C108.861 8.99548 108.765 8.36873 108.576 7.79554C108.386 7.22261 108.087 6.76263 107.678 6.41479C107.27 6.06748 106.744 5.89382 106.099 5.89382C105.461 5.89382 104.94 6.06748 104.536 6.41479C104.131 6.76263 103.834 7.22261 103.644 7.79554C103.454 8.36873 103.36 8.99522 103.36 9.67605V9.90167H103.359Z" fill="#272727"/>
<path d="M140.668 9.46104C140.668 8.33639 140.485 7.34589 140.12 6.49008C139.755 5.63427 139.203 4.96431 138.465 4.48072C137.728 3.99741 136.8 3.75562 135.683 3.75562C134.672 3.75562 133.768 4.00297 132.97 4.4969C132.171 4.99135 131.542 5.68809 131.084 6.58685C130.626 7.48614 130.396 8.5408 130.396 9.75134V10.192C130.396 11.2448 130.622 12.1958 131.073 13.0447C131.525 13.8933 132.169 14.5667 133.007 15.0646C133.845 15.5625 134.841 15.8112 135.995 15.8112C137.14 15.8112 138.081 15.5875 138.815 15.1397C139.549 14.6922 140.099 14.1927 140.464 13.6409L139.068 12.244C138.717 12.7024 138.3 13.0537 137.816 13.2971C137.332 13.5407 136.779 13.6624 136.156 13.6624C135.511 13.6624 134.956 13.5105 134.49 13.2056C134.024 12.9015 133.67 12.4877 133.426 11.9646L133.421 11.9524C133.131 11.3246 133.622 10.6109 134.313 10.6109H140.668V9.46157L140.668 9.46104ZM138.035 8.68741H133.133C133.183 8.33665 133.258 8.01161 133.362 7.71494C133.562 7.1383 133.856 6.69078 134.242 6.37184C134.629 6.05343 135.106 5.89382 135.672 5.89382C136.238 5.89382 136.69 6.01551 137.031 6.25889C137.371 6.50254 137.62 6.82148 137.777 7.21519C137.935 7.60916 138.021 8.03176 138.035 8.483V8.68741Z" fill="#272727"/>
<path d="M148.436 3.79564C148.249 3.76727 148.081 3.75269 147.931 3.75269C147.157 3.75269 146.513 3.98202 145.997 4.44041C145.72 4.68697 145.481 4.98152 145.278 5.32115L145.202 3.9677H142.666V15.593H145.331V7.74568C145.358 7.67993 145.385 7.61286 145.417 7.55055C145.617 7.1603 145.913 6.85965 146.303 6.64808C146.694 6.43704 147.182 6.33126 147.77 6.33126C147.949 6.33126 148.13 6.33842 148.313 6.35273C148.495 6.36732 148.669 6.38879 148.834 6.41716L148.855 3.89214C148.762 3.85635 148.622 3.82427 148.436 3.79564H148.436Z" fill="#272727"/>
<path d="M63.2729 3.90115H60.7033V5.10904C60.4106 4.72594 60.0617 4.40621 59.6455 4.1607C59.0323 3.79934 58.3191 3.61853 57.5062 3.61853C56.5141 3.61853 55.6358 3.8818 54.8712 4.40833C54.1063 4.93512 53.5103 5.65785 53.0832 6.57755C52.6561 7.49726 52.4424 8.54608 52.4424 9.72508C52.4424 10.9041 52.6558 11.9574 53.0832 12.8845C53.5103 13.8122 54.1028 14.5431 54.8608 15.0771C55.6185 15.6116 56.4937 15.8788 57.4858 15.8788C58.3952 15.8788 59.1394 15.6665 59.7181 15.242C60.1033 14.9596 60.4284 14.6468 60.7036 14.3085V15.5957H63.2731V3.90115H63.2729ZM60.2486 12.5287C59.6932 13.2544 58.9811 13.6168 58.1128 13.6168C57.5383 13.6168 57.024 13.4511 56.5709 13.1192C56.1175 12.7878 55.763 12.3286 55.5077 11.7421C55.2521 11.1559 55.1244 10.4847 55.1244 9.72879C55.1244 8.57153 55.4054 7.63406 55.9674 6.91691C56.5292 6.19923 57.2443 5.84078 58.1128 5.84078C58.9813 5.84078 59.6932 6.19949 60.2486 6.91691L60.2542 6.92407C60.5591 7.32016 60.7033 7.81726 60.7033 8.31728V11.1286C60.7033 11.6252 60.5599 12.1183 60.26 12.5142L60.2486 12.529V12.5287Z" fill="#272727"/>
<path d="M47.7803 -0.000244141V15.5958H50.445V1.06024C50.445 0.474589 49.9702 -0.000244141 49.3845 -0.000244141H47.7803Z" fill="#272727"/>
<path d="M96.897 4.19054C96.3278 3.90023 95.6597 3.75521 94.893 3.75521C93.9833 3.75521 93.1882 3.99885 92.5079 4.48588C92.1959 4.70911 91.9175 4.97211 91.6696 5.27064V1.06024C91.6696 0.474589 91.1948 -0.000244141 90.6091 -0.000244141H89.0049V15.5958H91.6696V7.64693C91.6696 7.39055 91.7526 7.14107 91.9064 6.93561C92.1426 6.62064 92.4326 6.3754 92.7765 6.19963C93.1204 6.02438 93.5215 5.93663 93.9799 5.93663C94.4166 5.93663 94.7875 6.00476 95.0918 6.14077C95.3962 6.27704 95.6274 6.50611 95.7848 6.8285C95.9423 7.15088 96.0213 7.58436 96.0213 8.12865V15.5961H98.6969V8.14986C98.6969 7.08275 98.5392 6.22853 98.2242 5.58746C97.909 4.9464 97.4668 4.48058 96.897 4.19054Z" fill="#272727"/>
<path d="M113.526 -0.000244141V15.6266H116.191V1.06024C116.191 0.474589 115.716 -0.000244141 115.131 -0.000244141H113.526Z" fill="#272727"/>
<path d="M125.732 -0.000244141V5.06915C125.544 4.85201 125.341 4.65688 125.12 4.48588C124.49 3.99885 123.705 3.75521 122.767 3.75521C121.814 3.75521 120.997 4.00415 120.317 4.50179C119.636 4.99995 119.112 5.69457 118.743 6.58617C118.374 7.47804 118.189 8.51149 118.189 9.68598V9.9116C118.189 11.0434 118.374 12.0535 118.743 12.9417C119.112 13.8298 119.636 14.53 120.317 15.0422C120.997 15.5544 121.807 15.8103 122.745 15.8103C123.698 15.8103 124.491 15.5669 125.125 15.0796C125.394 14.8736 125.636 14.6326 125.854 14.3611L125.98 15.5953H128.397V1.06024C128.397 0.474589 127.922 -0.000244141 127.337 -0.000244141H125.732ZM125.732 11.597C125.732 12.2585 125.404 12.877 124.857 13.2482C124.481 13.5027 124.002 13.6297 123.422 13.6297C122.806 13.6297 122.31 13.4629 121.934 13.1299C121.558 12.7967 121.284 12.3494 121.112 11.7868C120.94 11.2247 120.854 10.5993 120.854 9.91186V9.68624C120.854 8.99162 120.94 8.35931 121.112 7.78983C121.284 7.22061 121.562 6.76911 121.945 6.43612C122.328 6.10312 122.828 5.93663 123.444 5.93663C123.873 5.93663 124.25 6.01166 124.572 6.16225C124.894 6.31283 125.165 6.52069 125.383 6.78555L125.387 6.79032C125.61 7.06207 125.732 7.40301 125.732 7.75483V11.597Z" fill="#272727"/>
<path d="M45.2607 6.57068C44.9129 5.68252 44.4028 4.99135 43.7296 4.4969C43.0562 4.00297 42.229 3.75562 41.2476 3.75562C40.2878 3.75562 39.489 3.99741 38.8517 4.48072C38.5921 4.67744 38.3572 4.90677 38.144 5.165V3.97142H38.0351V3.97036H35.5742V19.5176H37.1785C37.7641 19.5176 38.239 19.0428 38.239 18.4571V14.5307C38.428 14.7407 38.6335 14.9302 38.857 15.0962C39.4978 15.5729 40.3056 15.8107 41.2799 15.8107C42.2468 15.8107 43.065 15.5527 43.7352 15.0371C44.4046 14.5214 44.9131 13.8175 45.261 12.9256C45.6083 12.034 45.7822 11.0221 45.7822 9.89053V9.66465C45.7822 8.48989 45.6083 7.45857 45.261 6.57015L45.2607 6.57068ZM43.1172 9.8908C43.1172 10.5783 43.0313 11.2066 42.8592 11.7763C42.6874 12.3456 42.4114 12.8042 42.0318 13.1518C41.6519 13.4994 41.1542 13.673 40.5384 13.673C39.9437 13.673 39.4585 13.546 39.0823 13.2915C38.8837 13.1574 38.7103 12.9983 38.5613 12.8146C38.3461 12.5492 38.239 12.2111 38.239 11.8694V7.65317C38.239 7.33423 38.3498 7.02536 38.5526 6.77933L38.5563 6.77482C38.7745 6.50997 39.0452 6.30423 39.3676 6.15709C39.69 6.01048 40.0731 5.93704 40.5171 5.93704C41.1333 5.93704 41.6328 6.10168 42.0161 6.43096C42.399 6.76051 42.6784 7.20856 42.8542 7.77407C43.0294 8.3401 43.1175 8.97056 43.1175 9.66518V9.89106L43.1172 9.8908Z" fill="#272727"/>
</g>
<defs>
<clipPath id="clip0_4424_1268">
<rect width="148.853" height="27" fill="white"/>
</clipPath>
</defs>
</svg>
